<mxfile host="app.diagrams.net" modified="2024-04-01T22:12:43.939Z" agent="Mozilla/5.0 (X11; Linux x86_64) AppleWebKit/537.36 (KHTML, like Gecko) Chrome/123.0.0.0 Safari/537.36" version="24.0.7" etag="6nSCpbye-K0iqad5VKI1" type="github">
  <diagram name="Page-1" id="t6_ZjRhuOmLJ6a1sLXZY">
    <mxGraphModel>
      <root>
        <mxCell id="0" />
        <mxCell id="1" parent="0" />
      </root>
    </mxGraphModel>
  </diagram>
</mxfile>
